<svg id="visual" viewBox="0 0 900 600" width="900" height="600" xmlns="http://www.w3.org/2000/svg" xmlns:xlink="http://www.w3.org/1999/xlink" version="1.1"><rect x="0" y="0" width="900" height="600" fill="#0F2027"></rect><path d="M0 184L21.5 187C43 190 86 196 128.8 195.3C171.7 194.7 214.3 187.3 257.2 187.3C300 187.3 343 194.7 385.8 191.7C428.7 188.7 471.3 175.3 514.2 178.2C557 181 600 200 642.8 200.3C685.7 200.7 728.3 182.3 771.2 173C814 163.7 857 163.3 878.5 163.2L900 163L900 0L878.5 0C857 0 814 0 771.2 0C728.3 0 685.7 0 642.8 0C600 0 557 0 514.2 0C471.3 0 428.7 0 385.8 0C343 0 300 0 257.2 0C214.3 0 171.7 0 128.8 0C86 0 43 0 21.5 0L0 0Z" fill="#eeb7cd"></path><path d="M0 118L21.5 128.5C43 139 86 160 128.8 174.5C171.7 189 214.3 197 257.2 199.3C300 201.7 343 198.3 385.8 195.2C428.7 192 471.3 189 514.2 180.8C557 172.7 600 159.3 642.8 150C685.7 140.7 728.3 135.3 771.2 131.8C814 128.3 857 126.7 878.5 125.8L900 125L900 0L878.5 0C857 0 814 0 771.2 0C728.3 0 685.7 0 642.8 0C600 0 557 0 514.2 0C471.3 0 428.7 0 385.8 0C343 0 300 0 257.2 0C214.3 0 171.7 0 128.8 0C86 0 43 0 21.5 0L0 0Z" fill="#c59ebb"></path><path d="M0 145L21.5 136.2C43 127.3 86 109.7 128.8 107C171.7 104.3 214.3 116.7 257.2 127.7C300 138.7 343 148.3 385.8 144.7C428.7 141 471.3 124 514.2 119.5C557 115 600 123 642.8 129.5C685.7 136 728.3 141 771.2 143.2C814 145.3 857 144.7 878.5 144.3L900 144L900 0L878.5 0C857 0 814 0 771.2 0C728.3 0 685.7 0 642.8 0C600 0 557 0 514.2 0C471.3 0 428.7 0 385.8 0C343 0 300 0 257.2 0C214.3 0 171.7 0 128.8 0C86 0 43 0 21.5 0L0 0Z" fill="#9d87a5"></path><path d="M0 95L21.5 95.3C43 95.7 86 96.3 128.8 100C171.7 103.7 214.3 110.3 257.2 112.8C300 115.3 343 113.7 385.8 108.8C428.7 104 471.3 96 514.2 89.8C557 83.7 600 79.3 642.8 81.7C685.7 84 728.3 93 771.2 98.2C814 103.3 857 104.7 878.5 105.3L900 106L900 0L878.5 0C857 0 814 0 771.2 0C728.3 0 685.7 0 642.8 0C600 0 557 0 514.2 0C471.3 0 428.7 0 385.8 0C343 0 300 0 257.2 0C214.3 0 171.7 0 128.8 0C86 0 43 0 21.5 0L0 0Z" fill="#77708d"></path><path d="M0 46L21.5 48.5C43 51 86 56 128.8 55.8C171.7 55.7 214.3 50.3 257.2 45.7C300 41 343 37 385.8 39.7C428.7 42.3 471.3 51.7 514.2 53.5C557 55.3 600 49.7 642.8 48C685.7 46.3 728.3 48.7 771.2 47.2C814 45.7 857 40.3 878.5 37.7L900 35L900 0L878.5 0C857 0 814 0 771.2 0C728.3 0 685.7 0 642.8 0C600 0 557 0 514.2 0C471.3 0 428.7 0 385.8 0C343 0 300 0 257.2 0C214.3 0 171.7 0 128.8 0C86 0 43 0 21.5 0L0 0Z" fill="#545a72"></path></svg>