<svg id="visual" viewBox="0 0 900 675" width="900" height="675" xmlns="http://www.w3.org/2000/svg" xmlns:xlink="http://www.w3.org/1999/xlink" version="1.1"><rect x="0" y="0" width="900" height="675" fill="#0f2027"></rect><path d="M0 460L25 459.2C50 458.3 100 456.7 150 443.8C200 431 250 407 300 403C350 399 400 415 450 430C500 445 550 459 600 455.7C650 452.3 700 431.7 750 415.3C800 399 850 387 875 381L900 375L900 676L875 676C850 676 800 676 750 676C700 676 650 676 600 676C550 676 500 676 450 676C400 676 350 676 300 676C250 676 200 676 150 676C100 676 50 676 25 676L0 676Z" fill="#eeb7cd" stroke-linecap="round" stroke-linejoin="miter"></path></svg>