<svg id="visual" viewBox="0 0 900 350" width="900" height="350" xmlns="http://www.w3.org/2000/svg" xmlns:xlink="http://www.w3.org/1999/xlink" version="1.1"><rect x="0" y="0" width="900" height="350" fill="#0f2027"></rect><path d="M0 270L18.8 272.3C37.7 274.7 75.3 279.3 112.8 276.3C150.3 273.3 187.7 262.7 225.2 250.5C262.7 238.3 300.3 224.7 337.8 215.5C375.3 206.3 412.7 201.7 450.2 208.5C487.7 215.3 525.3 233.7 562.8 228.5C600.3 223.3 637.7 194.7 675.2 181.5C712.7 168.3 750.3 170.7 787.8 180.7C825.3 190.7 862.7 208.3 881.3 217.2L900 226L900 351L881.3 351C862.7 351 825.3 351 787.8 351C750.3 351 712.7 351 675.2 351C637.7 351 600.3 351 562.8 351C525.3 351 487.7 351 450.2 351C412.7 351 375.3 351 337.8 351C300.3 351 262.7 351 225.2 351C187.7 351 150.3 351 112.8 351C75.3 351 37.7 351 18.8 351L0 351Z" fill="#eeb7cd" stroke-linecap="round" stroke-linejoin="miter"></path></svg>