<svg id="visual" viewBox="0 0 900 675" width="900" height="675" xmlns="http://www.w3.org/2000/svg" xmlns:xlink="http://www.w3.org/1999/xlink" version="1.1"><rect x="0" y="0" width="900" height="675" fill="#0f2027"></rect><path d="M0 219L25 200.8C50 182.7 100 146.3 150 145.5C200 144.7 250 179.3 300 201.8C350 224.3 400 234.7 450 245.3C500 256 550 267 600 259.2C650 251.3 700 224.7 750 196C800 167.3 850 136.7 875 121.3L900 106L900 0L875 0C850 0 800 0 750 0C700 0 650 0 600 0C550 0 500 0 450 0C400 0 350 0 300 0C250 0 200 0 150 0C100 0 50 0 25 0L0 0Z" fill="#837895" stroke-linecap="round" stroke-linejoin="miter"></path></svg>