<svg id="visual" viewBox="0 0 900 600" width="900" height="600" xmlns="http://www.w3.org/2000/svg" xmlns:xlink="http://www.w3.org/1999/xlink" version="1.1"><rect x="0" y="0" width="900" height="600" fill="#0F2027"></rect><path d="M0 396L21.5 402.8C43 409.7 86 423.3 128.8 424.8C171.7 426.3 214.3 415.7 257.2 402.8C300 390 343 375 385.8 380.8C428.7 386.7 471.3 413.3 514.2 423.5C557 433.7 600 427.3 642.8 427.2C685.7 427 728.3 433 771.2 430.7C814 428.3 857 417.7 878.5 412.3L900 407L900 601L878.5 601C857 601 814 601 771.2 601C728.3 601 685.7 601 642.8 601C600 601 557 601 514.2 601C471.3 601 428.7 601 385.8 601C343 601 300 601 257.2 601C214.3 601 171.7 601 128.8 601C86 601 43 601 21.5 601L0 601Z" fill="#eeb7cd"></path><path d="M0 399L21.5 401C43 403 86 407 128.8 417.8C171.7 428.7 214.3 446.3 257.2 451.3C300 456.3 343 448.7 385.8 438.3C428.7 428 471.3 415 514.2 414C557 413 600 424 642.8 429C685.7 434 728.3 433 771.2 435.2C814 437.3 857 442.7 878.5 445.3L900 448L900 601L878.5 601C857 601 814 601 771.2 601C728.3 601 685.7 601 642.8 601C600 601 557 601 514.2 601C471.3 601 428.7 601 385.8 601C343 601 300 601 257.2 601C214.3 601 171.7 601 128.8 601C86 601 43 601 21.5 601L0 601Z" fill="#c59ebb"></path><path d="M0 505L21.5 505.5C43 506 86 507 128.8 496.3C171.7 485.7 214.3 463.3 257.2 456.7C300 450 343 459 385.8 463C428.7 467 471.3 466 514.2 461.7C557 457.3 600 449.7 642.8 446.2C685.7 442.7 728.3 443.3 771.2 449.7C814 456 857 468 878.5 474L900 480L900 601L878.5 601C857 601 814 601 771.2 601C728.3 601 685.7 601 642.8 601C600 601 557 601 514.2 601C471.3 601 428.7 601 385.8 601C343 601 300 601 257.2 601C214.3 601 171.7 601 128.8 601C86 601 43 601 21.5 601L0 601Z" fill="#9d87a5"></path><path d="M0 497L21.5 495C43 493 86 489 128.8 493.2C171.7 497.3 214.3 509.7 257.2 519.2C300 528.7 343 535.3 385.8 535.3C428.7 535.3 471.3 528.7 514.2 523.3C557 518 600 514 642.8 513C685.7 512 728.3 514 771.2 510.5C814 507 857 498 878.5 493.5L900 489L900 601L878.5 601C857 601 814 601 771.2 601C728.3 601 685.7 601 642.8 601C600 601 557 601 514.2 601C471.3 601 428.7 601 385.8 601C343 601 300 601 257.2 601C214.3 601 171.7 601 128.8 601C86 601 43 601 21.5 601L0 601Z" fill="#77708d"></path><path d="M0 559L21.5 554.2C43 549.3 86 539.7 128.8 539.2C171.7 538.7 214.3 547.3 257.2 547.8C300 548.3 343 540.7 385.8 539.8C428.7 539 471.3 545 514.2 547.7C557 550.3 600 549.7 642.8 547.8C685.7 546 728.3 543 771.2 540C814 537 857 534 878.5 532.5L900 531L900 601L878.5 601C857 601 814 601 771.2 601C728.3 601 685.7 601 642.8 601C600 601 557 601 514.2 601C471.3 601 428.7 601 385.8 601C343 601 300 601 257.2 601C214.3 601 171.7 601 128.8 601C86 601 43 601 21.5 601L0 601Z" fill="#545a72"></path></svg>