<svg id="visual" viewBox="0 0 900 300" width="900" height="300" xmlns="http://www.w3.org/2000/svg" xmlns:xlink="http://www.w3.org/1999/xlink" version="1.1"><rect x="0" y="0" width="900" height="300" fill="#0F2027"></rect><path d="M0 193L21.5 183.7C43 174.3 86 155.7 128.8 148.5C171.7 141.3 214.3 145.7 257.2 149C300 152.3 343 154.7 385.8 160.8C428.7 167 471.3 177 514.2 182.3C557 187.7 600 188.3 642.8 178C685.7 167.7 728.3 146.3 771.2 136.8C814 127.3 857 129.7 878.5 130.8L900 132L900 0L878.5 0C857 0 814 0 771.2 0C728.3 0 685.7 0 642.8 0C600 0 557 0 514.2 0C471.3 0 428.7 0 385.8 0C343 0 300 0 257.2 0C214.3 0 171.7 0 128.8 0C86 0 43 0 21.5 0L0 0Z" fill="#eeb7cd"></path><path d="M0 147L21.5 146.2C43 145.3 86 143.7 128.8 136.8C171.7 130 214.3 118 257.2 120.3C300 122.7 343 139.3 385.8 142C428.7 144.7 471.3 133.3 514.2 127.2C557 121 600 120 642.8 117.3C685.7 114.7 728.3 110.3 771.2 106.5C814 102.7 857 99.3 878.5 97.7L900 96L900 0L878.5 0C857 0 814 0 771.2 0C728.3 0 685.7 0 642.8 0C600 0 557 0 514.2 0C471.3 0 428.7 0 385.8 0C343 0 300 0 257.2 0C214.3 0 171.7 0 128.8 0C86 0 43 0 21.5 0L0 0Z" fill="#c59ebb"></path><path d="M0 126L21.5 116.7C43 107.3 86 88.7 128.8 87C171.7 85.3 214.3 100.7 257.2 103.5C300 106.3 343 96.7 385.8 93.3C428.7 90 471.3 93 514.2 97.3C557 101.7 600 107.3 642.8 106C685.7 104.7 728.3 96.3 771.2 91.5C814 86.7 857 85.3 878.5 84.7L900 84L900 0L878.5 0C857 0 814 0 771.2 0C728.3 0 685.7 0 642.8 0C600 0 557 0 514.2 0C471.3 0 428.7 0 385.8 0C343 0 300 0 257.2 0C214.3 0 171.7 0 128.8 0C86 0 43 0 21.5 0L0 0Z" fill="#9d87a5"></path><path d="M0 94L21.5 85.8C43 77.7 86 61.3 128.8 54.5C171.7 47.7 214.3 50.3 257.2 55C300 59.7 343 66.3 385.8 69.3C428.7 72.3 471.3 71.7 514.2 68.7C557 65.7 600 60.3 642.8 58C685.7 55.7 728.3 56.3 771.2 57.3C814 58.3 857 59.7 878.5 60.3L900 61L900 0L878.5 0C857 0 814 0 771.2 0C728.3 0 685.7 0 642.8 0C600 0 557 0 514.2 0C471.3 0 428.7 0 385.8 0C343 0 300 0 257.2 0C214.3 0 171.7 0 128.8 0C86 0 43 0 21.5 0L0 0Z" fill="#77708d"></path><path d="M0 46L21.5 47.3C43 48.7 86 51.3 128.8 47.8C171.7 44.3 214.3 34.7 257.2 32.7C300 30.7 343 36.3 385.8 35.5C428.7 34.7 471.3 27.3 514.2 25.8C557 24.3 600 28.7 642.8 31.3C685.7 34 728.3 35 771.2 37.8C814 40.7 857 45.3 878.5 47.7L900 50L900 0L878.5 0C857 0 814 0 771.2 0C728.3 0 685.7 0 642.8 0C600 0 557 0 514.2 0C471.3 0 428.7 0 385.8 0C343 0 300 0 257.2 0C214.3 0 171.7 0 128.8 0C86 0 43 0 21.5 0L0 0Z" fill="#545a72"></path></svg>