<svg id="visual" viewBox="0 0 900 300" width="900" height="300" xmlns="http://www.w3.org/2000/svg" xmlns:xlink="http://www.w3.org/1999/xlink" version="1.1"><rect x="0" y="0" width="900" height="300" fill="#0f2027"></rect><path d="M0 250L18.8 251.5C37.7 253 75.3 256 112.8 254.2C150.3 252.3 187.7 245.7 225.2 238.3C262.7 231 300.3 223 337.8 217.5C375.3 212 412.7 209 450.2 213.2C487.7 217.3 525.3 228.7 562.8 225.5C600.3 222.3 637.7 204.7 675.2 196.5C712.7 188.3 750.3 189.7 787.8 195.7C825.3 201.7 862.7 212.3 881.3 217.7L900 223L900 301L881.3 301C862.7 301 825.3 301 787.8 301C750.3 301 712.7 301 675.2 301C637.7 301 600.3 301 562.8 301C525.3 301 487.7 301 450.2 301C412.7 301 375.3 301 337.8 301C300.3 301 262.7 301 225.2 301C187.7 301 150.3 301 112.8 301C75.3 301 37.7 301 18.8 301L0 301Z" fill="#eeb7cd" stroke-linecap="round" stroke-linejoin="miter"></path></svg>