<svg id="visual" viewBox="0 0 900 600" width="900" height="600" xmlns="http://www.w3.org/2000/svg" xmlns:xlink="http://www.w3.org/1999/xlink" version="1.1"><rect x="0" y="0" width="900" height="600" fill="#0f2027"></rect><path d="M0 334L21.5 337.2C43 340.3 86 346.7 128.8 340.7C171.7 334.7 214.3 316.3 257.2 302.5C300 288.7 343 279.3 385.8 287.3C428.7 295.3 471.3 320.7 514.2 320.5C557 320.3 600 294.7 642.8 289.8C685.7 285 728.3 301 771.2 309.8C814 318.7 857 320.3 878.5 321.2L900 322L900 601L878.5 601C857 601 814 601 771.2 601C728.3 601 685.7 601 642.8 601C600 601 557 601 514.2 601C471.3 601 428.7 601 385.8 601C343 601 300 601 257.2 601C214.3 601 171.7 601 128.8 601C86 601 43 601 21.5 601L0 601Z" fill="#eeb7cd"></path><path d="M0 333L21.5 348.7C43 364.3 86 395.7 128.8 406.2C171.7 416.7 214.3 406.3 257.2 397.3C300 388.3 343 380.7 385.8 382.7C428.7 384.7 471.3 396.3 514.2 392.8C557 389.3 600 370.7 642.8 372C685.7 373.3 728.3 394.7 771.2 402.3C814 410 857 404 878.5 401L900 398L900 601L878.5 601C857 601 814 601 771.2 601C728.3 601 685.7 601 642.8 601C600 601 557 601 514.2 601C471.3 601 428.7 601 385.8 601C343 601 300 601 257.2 601C214.3 601 171.7 601 128.8 601C86 601 43 601 21.5 601L0 601Z" fill="#d3a7c1"></path><path d="M0 435L21.5 431.5C43 428 86 421 128.8 417.3C171.7 413.7 214.3 413.3 257.2 416.5C300 419.7 343 426.3 385.8 421.7C428.7 417 471.3 401 514.2 403.7C557 406.3 600 427.7 642.8 431.7C685.7 435.7 728.3 422.3 771.2 411.3C814 400.3 857 391.7 878.5 387.3L900 383L900 601L878.5 601C857 601 814 601 771.2 601C728.3 601 685.7 601 642.8 601C600 601 557 601 514.2 601C471.3 601 428.7 601 385.8 601C343 601 300 601 257.2 601C214.3 601 171.7 601 128.8 601C86 601 43 601 21.5 601L0 601Z" fill="#b897b4"></path><path d="M0 459L21.5 464C43 469 86 479 128.8 474.7C171.7 470.3 214.3 451.7 257.2 447.3C300 443 343 453 385.8 466.3C428.7 479.7 471.3 496.3 514.2 498.3C557 500.3 600 487.7 642.8 482.2C685.7 476.7 728.3 478.3 771.2 483.8C814 489.3 857 498.7 878.5 503.3L900 508L900 601L878.5 601C857 601 814 601 771.2 601C728.3 601 685.7 601 642.8 601C600 601 557 601 514.2 601C471.3 601 428.7 601 385.8 601C343 601 300 601 257.2 601C214.3 601 171.7 601 128.8 601C86 601 43 601 21.5 601L0 601Z" fill="#9d87a5"></path><path d="M0 516L21.5 517.7C43 519.3 86 522.7 128.8 522.3C171.7 522 214.3 518 257.2 517.7C300 517.3 343 520.7 385.8 526.8C428.7 533 471.3 542 514.2 540.2C557 538.3 600 525.7 642.8 523.5C685.7 521.3 728.3 529.7 771.2 531C814 532.3 857 526.7 878.5 523.8L900 521L900 601L878.5 601C857 601 814 601 771.2 601C728.3 601 685.7 601 642.8 601C600 601 557 601 514.2 601C471.3 601 428.7 601 385.8 601C343 601 300 601 257.2 601C214.3 601 171.7 601 128.8 601C86 601 43 601 21.5 601L0 601Z" fill="#837895"></path></svg>