<svg id="visual" viewBox="0 0 960 540" width="960" height="540" xmlns="http://www.w3.org/2000/svg" xmlns:xlink="http://www.w3.org/1999/xlink" version="1.1"><path d="M0 50L14.5 51.7C29 53.3 58 56.7 87.2 54.8C116.3 53 145.7 46 174.8 45.2C204 44.3 233 49.7 262 51.5C291 53.3 320 51.7 349 57C378 62.3 407 74.7 436.2 80C465.3 85.3 494.7 83.7 523.8 83.7C553 83.7 582 85.3 611 85.3C640 85.3 669 83.7 698 75.7C727 67.7 756 53.3 785.2 47C814.3 40.7 843.7 42.3 872.8 42.3C902 42.3 931 40.7 945.5 39.8L960 39L960 0L945.5 0C931 0 902 0 872.8 0C843.7 0 814.3 0 785.2 0C756 0 727 0 698 0C669 0 640 0 611 0C582 0 553 0 523.8 0C494.7 0 465.3 0 436.2 0C407 0 378 0 349 0C320 0 291 0 262 0C233 0 204 0 174.8 0C145.7 0 116.3 0 87.2 0C58 0 29 0 14.5 0L0 0Z" fill="#eeb7cd"></path><path d="M0 131L14.5 137.2C29 143.3 58 155.7 87.2 149.3C116.3 143 145.7 118 174.8 119.8C204 121.7 233 150.3 262 154.8C291 159.3 320 139.7 349 140.7C378 141.7 407 163.3 436.2 176.8C465.3 190.3 494.7 195.7 523.8 196.5C553 197.3 582 193.7 611 191C640 188.3 669 186.7 698 170.5C727 154.3 756 123.7 785.2 124.5C814.3 125.3 843.7 157.7 872.8 169.3C902 181 931 172 945.5 167.5L960 163L960 37L945.5 37.8C931 38.7 902 40.3 872.8 40.3C843.7 40.3 814.3 38.7 785.2 45C756 51.3 727 65.7 698 73.7C669 81.7 640 83.3 611 83.3C582 83.3 553 81.7 523.8 81.7C494.7 81.7 465.3 83.3 436.2 78C407 72.7 378 60.3 349 55C320 49.7 291 51.3 262 49.5C233 47.7 204 42.3 174.8 43.2C145.7 44 116.3 51 87.2 52.8C58 54.7 29 51.3 14.5 49.7L0 48Z" fill="#d3a7c1"></path><path d="M0 228L14.5 230.7C29 233.3 58 238.7 87.2 234.2C116.3 229.7 145.7 215.3 174.8 210.8C204 206.3 233 211.7 262 217C291 222.3 320 227.7 349 233C378 238.3 407 243.7 436.2 246.3C465.3 249 494.7 249 523.8 255.3C553 261.7 582 274.3 611 276.2C640 278 669 269 698 256.5C727 244 756 228 785.2 230.7C814.3 233.3 843.7 254.7 872.8 260.8C902 267 931 258 945.5 253.5L960 249L960 161L945.5 165.5C931 170 902 179 872.8 167.3C843.7 155.7 814.3 123.3 785.2 122.5C756 121.7 727 152.3 698 168.5C669 184.7 640 186.3 611 189C582 191.7 553 195.3 523.8 194.5C494.7 193.7 465.3 188.3 436.2 174.8C407 161.3 378 139.7 349 138.7C320 137.7 291 157.3 262 152.8C233 148.3 204 119.7 174.8 117.8C145.7 116 116.3 141 87.2 147.3C58 153.7 29 141.3 14.5 135.2L0 129Z" fill="#b897b4"></path><path d="M0 428L14.5 429.7C29 431.3 58 434.7 87.2 412.2C116.3 389.7 145.7 341.3 174.8 327C204 312.7 233 332.3 262 346.7C291 361 320 370 349 367.3C378 364.7 407 350.3 436.2 348.5C465.3 346.7 494.7 357.3 523.8 365.3C553 373.3 582 378.7 611 390.3C640 402 669 420 698 422.8C727 425.7 756 413.3 785.2 414.3C814.3 415.3 843.7 429.7 872.8 439.5C902 449.3 931 454.7 945.5 457.3L960 460L960 247L945.5 251.5C931 256 902 265 872.8 258.8C843.7 252.7 814.3 231.3 785.2 228.7C756 226 727 242 698 254.5C669 267 640 276 611 274.2C582 272.3 553 259.7 523.8 253.3C494.7 247 465.3 247 436.2 244.3C407 241.7 378 236.3 349 231C320 225.7 291 220.3 262 215C233 209.7 204 204.3 174.8 208.8C145.7 213.3 116.3 227.7 87.2 232.2C58 236.7 29 231.3 14.5 228.7L0 226Z" fill="#9d87a5"></path><path d="M0 541L14.5 541C29 541 58 541 87.2 541C116.3 541 145.7 541 174.8 541C204 541 233 541 262 541C291 541 320 541 349 541C378 541 407 541 436.2 541C465.3 541 494.7 541 523.8 541C553 541 582 541 611 541C640 541 669 541 698 541C727 541 756 541 785.2 541C814.3 541 843.7 541 872.8 541C902 541 931 541 945.5 541L960 541L960 458L945.5 455.3C931 452.7 902 447.3 872.8 437.5C843.7 427.7 814.3 413.3 785.2 412.3C756 411.3 727 423.7 698 420.8C669 418 640 400 611 388.3C582 376.7 553 371.3 523.8 363.3C494.7 355.3 465.3 344.7 436.2 346.5C407 348.3 378 362.7 349 365.3C320 368 291 359 262 344.7C233 330.3 204 310.7 174.8 325C145.7 339.3 116.3 387.7 87.2 410.2C58 432.7 29 429.3 14.5 427.7L0 426Z" fill="#837895"></path></svg>